<?xml version="1.0" standalone="no"?>
<!DOCTYPE svg PUBLIC "-//W3C//DTD SVG 1.1//EN" "http://www.w3.org/Graphics/SVG/1.1/DTD/svg11.dtd">
<svg xmlns="http://www.w3.org/2000/svg" id="Layer_1" data-name="Layer 1" viewBox="0 0 200 200" width="200" height="200"><defs><style>.cls-1{fill:#10472a;}</style></defs><path class="cls-1" d="M161.53,53.44a258.05,258.05,0,0,0-26.94-1.71c-.06-3.6-.58-11.75-3.93-18.89A2.6,2.6,0,0,0,127,31.56a3,3,0,0,0-1.19,3.9c2.81,6,3.28,13.14,3.34,16.27A256.64,256.64,0,0,0,102,53.44C88.39,55,78.1,67.36,78.1,82.12a7.54,7.54,0,0,0,2.46,5.64,6.54,6.54,0,0,0,3.75,1.67A47.48,47.48,0,0,0,82,104.49a67.65,67.65,0,0,0,5.62,27.82,62.87,62.87,0,0,1-24.15,14c-4-1.17-26.61-8.7-36-31a2.63,2.63,0,0,0-3.57-1.44,3,3,0,0,0-1.34,3.85c4.72,11.22,13.19,20.74,24.49,27.52a63.64,63.64,0,0,0,15.82,6.93,3.07,3.07,0,0,0,.6.07,3,3,0,0,0,.6-.07,66.31,66.31,0,0,0,26.19-14.61,63.65,63.65,0,0,0,16.4,18.83,72.1,72.1,0,0,0,24.51,12.5,2.29,2.29,0,0,0,1.2,0,72.1,72.1,0,0,0,24.51-12.5c11.25-8.74,24.65-24.83,24.65-51.88a47.77,47.77,0,0,0-2.28-15.06A6.59,6.59,0,0,0,183,87.77a7.51,7.51,0,0,0,2.45-5.6v0C185.47,67.36,175.18,55,161.53,53.44Zm18.05,29.84a1.36,1.36,0,0,1-1.21.34l-3-.59c-7.16-1.36-14.46-2.39-21.71-3.08a2.76,2.76,0,0,0-2.92,2.65,2.85,2.85,0,0,0,2.45,3.15c6.65.62,13.34,1.55,19.92,2.76a39.34,39.34,0,0,1,3.08,16c0,19.67-7.49,35.5-22.26,47A69.4,69.4,0,0,1,131.79,163a69.42,69.42,0,0,1-22.11-11.51c-14.77-11.54-22.26-27.37-22.26-47a39.34,39.34,0,0,1,3.07-16,229,229,0,0,1,41.3-3.76c4,0,7.94.1,11.88.31a2.78,2.78,0,0,0,2.82-2.77,2.83,2.83,0,0,0-2.56-3c-4-.21-8.11-.32-12.14-.32A234.12,234.12,0,0,0,88.23,83l-3,.59A1.4,1.4,0,0,1,84,83.29a1.55,1.55,0,0,1-.51-1.17c0-11.78,8.22-21.63,19.13-22.9a252.87,252.87,0,0,1,58.33,0c10.91,1.27,19.13,11.11,19.13,22.9v0h0A1.45,1.45,0,0,1,179.58,83.28Z"/><path class="cls-1" d="M24.42,105.21a61.42,61.42,0,0,1-1.14-12A35.68,35.68,0,0,1,26,78.86a209.42,209.42,0,0,1,37.48-3.4c3.2,0,6.44.07,9.61.22a2.79,2.79,0,0,0,2.81-2.78,2.84,2.84,0,0,0-2.58-3c-3.25-.15-6.56-.23-9.84-.23a213.33,213.33,0,0,0-39.72,3.74h-.09a3,3,0,0,1-2.82-.94,3.62,3.62,0,0,1-.9-3c1.42-9.15,8.39-16.24,17-17.24a229.15,229.15,0,0,1,53.13,0,17.89,17.89,0,0,1,4,.94,2.66,2.66,0,0,0,3.41-1.84,3,3,0,0,0-1.71-3.68,23.32,23.32,0,0,0-5.16-1.2,235.82,235.82,0,0,0-24.35-1.56,49.94,49.94,0,0,0-1.65-11.71,2.68,2.68,0,0,0-3.35-2,3,3,0,0,0-1.82,3.62,43.26,43.26,0,0,1,1.42,10.06,233.77,233.77,0,0,0-24.53,1.56c-11,1.28-19.9,10.35-21.7,22.06a9.72,9.72,0,0,0,2.42,8.11,8.58,8.58,0,0,0,3.14,2.14A43.25,43.25,0,0,0,17.89,93.2a67.64,67.64,0,0,0,1.26,13.23,2.66,2.66,0,0,0,3.2,2.24A2.93,2.93,0,0,0,24.42,105.21Z"/></svg>