<?xml version="1.0" standalone="no"?>
<!DOCTYPE svg PUBLIC "-//W3C//DTD SVG 1.1//EN" "http://www.w3.org/Graphics/SVG/1.1/DTD/svg11.dtd">
<svg xmlns="http://www.w3.org/2000/svg" xmlns:xlink="http://www.w3.org/1999/xlink" version="1.1" id="Layer_1" x="0px" y="0px" viewBox="0 0 1024 1024" style="enable-background:new 0 0 1024 1024;" xml:space="preserve" width="1024" height="1024">
<style type="text/css">
	.st0{fill:#FFFFFF;}
	.st1{fill:#C69C6D;}
	.st2{fill:none;stroke:#C7B299;stroke-width:1.6;stroke-miterlimit:10;}
</style>
<g>
	<g>
		<path class="st0" d="M147.7,446.7h19.8v108h32.6v18h-52.4V446.7z"/>
		<path class="st0" d="M235.8,499.8h27.2v18h-27.2v36.9H270v18h-54v-126h54v18h-34.2V499.8z"/>
		<path class="st0" d="M316.1,445.2c19.3,0,29.2,11.5,29.2,31.7v4h-18.7v-5.2c0-9-3.6-12.4-9.9-12.4c-6.3,0-9.9,3.4-9.9,12.4    c0,25.9,38.7,30.8,38.7,66.8c0,20.2-10.1,31.7-29.5,31.7c-19.4,0-29.5-11.5-29.5-31.7v-7.7h18.7v9c0,9,4,12.2,10.3,12.2    c6.3,0,10.3-3.2,10.3-12.2c0-25.9-38.7-30.8-38.7-66.8C286.9,456.7,296.8,445.2,316.1,445.2z"/>
		<path class="st0" d="M463.1,572.7h-20l-3.4-22.9h-24.3l-3.4,22.9h-18.2l20.2-126h29L463.1,572.7z M417.9,532.7H437l-9.5-63.7    L417.9,532.7z"/>
		<path class="st0" d="M479.5,446.7h19.8v108h32.6v18h-52.4V446.7z"/>
		<path class="st0" d="M602.6,446.7v17.6L565,554.7h37.6v18h-58V555l37.6-90.4h-35.8v-18H602.6z"/>
		<path class="st0" d="M621.6,446.7h19.8v126h-19.8V446.7z"/>
		<path class="st0" d="M680.6,481.4v91.3h-17.8v-126h24.8l20.3,75.4v-75.4h17.6v126h-20.3L680.6,481.4z"/>
		<path class="st0" d="M766.8,499.8H794v18h-27.2v36.9H801v18h-54v-126h54v18h-34.2V499.8z"/>
		<path class="st0" d="M847.1,445.2c19.3,0,29.2,11.5,29.2,31.7v4h-18.7v-5.2c0-9-3.6-12.4-9.9-12.4c-6.3,0-9.9,3.4-9.9,12.4    c0,25.9,38.7,30.8,38.7,66.8c0,20.2-10.1,31.7-29.5,31.7s-29.5-11.5-29.5-31.7v-7.7h18.7v9c0,9,4,12.2,10.3,12.2    c6.3,0,10.3-3.2,10.3-12.2c0-25.9-38.7-30.8-38.7-66.8C818,456.7,827.9,445.2,847.1,445.2z"/>
	</g>
	<g>
		<path class="st1" d="M412.8,700.6c0.5,0.9,0.8,2,0.7,3.2c-0.1,1.2-0.4,2.4-1.1,3.6c-0.7,1.3-1.6,2.2-2.5,2.9c-1,0.7-2,1-3.1,1    c-1.1,0-2.2-0.3-3.2-0.8c-1.1-0.6-1.8-1.4-2.3-2.4c-0.5-1-0.6-2-0.4-3l-1.6,2.8l-2.5-1.4l9.1-16l2.5,1.4l-3.9,6.8    c0.8-0.7,1.7-1.1,2.8-1.2c1.1-0.1,2.1,0.2,3.2,0.8C411.5,698.8,412.3,699.6,412.8,700.6z M406.3,699.4c-0.7,0-1.4,0.2-2.1,0.6    s-1.2,1-1.6,1.8c-0.4,0.8-0.7,1.6-0.7,2.3c0,0.8,0.2,1.5,0.5,2.1c0.4,0.6,0.9,1.1,1.6,1.5c1.1,0.6,2.2,0.8,3.2,0.4    c1.1-0.3,1.9-1.1,2.6-2.3c0.7-1.2,0.9-2.4,0.6-3.4c-0.3-1.1-0.9-1.9-2-2.6C407.8,699.6,407.1,699.4,406.3,699.4z"/>
		<path class="st1" d="M421.6,704.3l-0.5,10.8l7.6-7.5l2.9,1.3l-15.9,14.9l-2.9-1.3l5.5-5l0.3-14.5L421.6,704.3z"/>
		<path class="st1" d="M456.3,714.9c1,1.5,1.5,3.2,1.4,5.1l-2.9-0.9c-0.1-1.1-0.5-2.1-1.1-3c-0.7-0.9-1.6-1.5-2.9-1.9    c-1-0.3-2-0.3-2.9-0.1c-0.9,0.2-1.8,0.8-2.5,1.5c-0.7,0.8-1.3,1.8-1.7,3c-0.4,1.2-0.5,2.3-0.3,3.4c0.2,1,0.6,1.9,1.2,2.7    c0.6,0.7,1.4,1.3,2.4,1.6c1.2,0.4,2.4,0.4,3.4,0.1c1-0.3,1.9-0.9,2.6-1.8l2.9,0.9c-1,1.6-2.4,2.8-4.1,3.4c-1.7,0.6-3.5,0.6-5.6,0    c-1.6-0.5-2.9-1.3-3.9-2.4c-1-1.1-1.6-2.4-1.9-3.9c-0.3-1.5-0.1-3.1,0.4-4.7c0.5-1.7,1.3-3,2.4-4.1c1.1-1.1,2.3-1.8,3.8-2.1    c1.4-0.4,2.9-0.3,4.5,0.2C453.8,712.4,455.3,713.5,456.3,714.9z"/>
		<path class="st1" d="M472.8,721.9c0.9,0.8,1.6,1.7,1.9,2.9c0.4,1.2,0.4,2.4,0.1,3.8c-0.3,1.4-0.8,2.6-1.6,3.5    c-0.8,0.9-1.8,1.5-2.9,1.9c-1.2,0.3-2.4,0.4-3.7,0.1s-2.4-0.8-3.3-1.5c-0.9-0.8-1.6-1.7-1.9-2.9c-0.4-1.2-0.4-2.4-0.1-3.8    c0.3-1.4,0.8-2.5,1.6-3.5c0.8-0.9,1.8-1.5,2.9-1.9c1.1-0.3,2.4-0.4,3.7-0.1C470.7,720.6,471.8,721.1,472.8,721.9z M466.9,722.8    c-0.7,0.2-1.3,0.6-1.8,1.2c-0.5,0.6-0.9,1.4-1.1,2.4c-0.2,1-0.2,1.9,0,2.6c0.2,0.7,0.6,1.3,1.1,1.8c0.5,0.4,1.2,0.7,1.9,0.9    c0.7,0.1,1.4,0.1,2.1-0.1c0.7-0.2,1.3-0.6,1.8-1.2c0.5-0.6,0.9-1.4,1.1-2.4c0.2-1,0.2-1.8,0-2.6c-0.2-0.7-0.6-1.3-1.1-1.8    c-0.5-0.4-1.2-0.7-1.9-0.9C468.2,722.6,467.5,722.6,466.9,722.8z"/>
		<path class="st1" d="M489.3,724.7c0.9,0.9,1.3,2.1,1.4,3.5l-2.7-0.3c0-0.8-0.3-1.4-0.7-1.9c-0.5-0.5-1.1-0.8-2-0.9    c-0.7-0.1-1.3,0-1.7,0.3c-0.4,0.3-0.7,0.7-0.7,1.3c-0.1,0.4,0,0.8,0.3,1.1c0.2,0.3,0.6,0.5,1,0.7c0.4,0.2,1,0.4,1.7,0.7    c1,0.4,1.8,0.7,2.4,1c0.6,0.3,1.1,0.8,1.5,1.4s0.5,1.3,0.4,2.3c-0.1,1.1-0.7,2-1.6,2.6c-0.9,0.6-2.2,0.8-3.6,0.6    c-1.7-0.2-3-0.8-3.9-1.7c-0.9-0.9-1.4-2.1-1.5-3.5l2.7,0.3c0,0.7,0.2,1.4,0.8,1.9c0.5,0.5,1.2,0.9,2.2,1c0.7,0.1,1.2,0,1.7-0.3    c0.4-0.3,0.7-0.7,0.7-1.3c0.1-0.5,0-0.9-0.3-1.2c-0.3-0.3-0.6-0.6-1-0.8c-0.4-0.2-1-0.4-1.8-0.7c-1-0.4-1.7-0.7-2.3-1    s-1.1-0.7-1.4-1.3c-0.4-0.6-0.5-1.3-0.4-2.2c0.1-1.1,0.7-2,1.6-2.6c1-0.6,2.2-0.8,3.7-0.6C487.2,723.2,488.4,723.8,489.3,724.7z"/>
		<path class="st1" d="M502.6,735.9l-0.1,2.5l-1.7-0.1c-1.5-0.1-2.5-0.5-3.2-1.2c-0.7-0.7-1-1.9-0.9-3.6l0.4-6.7l-2-0.1l0.1-2.4    l2,0.1l0.2-3.4l2.8,0.2l-0.2,3.4l3.3,0.2l-0.1,2.4l-3.3-0.2l-0.4,6.7c0,0.8,0.1,1.3,0.3,1.6c0.3,0.3,0.8,0.5,1.5,0.5L502.6,735.9z    "/>
		<path class="st1" d="M516.8,725.5c0.9,0.6,1.5,1.4,1.9,2.4l-0.1-3.2l2.8,0l0.2,13.7l-2.8,0l-0.1-3.2c-0.3,1-1,1.8-1.8,2.5    c-0.9,0.6-1.9,0.9-3.2,1c-1.2,0-2.3-0.2-3.2-0.8c-0.9-0.5-1.7-1.3-2.2-2.4c-0.5-1-0.8-2.3-0.9-3.7c0-1.4,0.2-2.7,0.7-3.7    c0.5-1.1,1.2-1.9,2.2-2.5c0.9-0.6,2-0.9,3.2-0.9C514.8,724.7,515.9,724.9,516.8,725.5z M511.5,728.4c-0.7,0.8-1.1,1.9-1.1,3.3    c0,1.4,0.4,2.5,1.2,3.3c0.8,0.8,1.8,1.2,3,1.2c0.8,0,1.5-0.2,2.1-0.6c0.6-0.4,1.1-0.9,1.5-1.6c0.4-0.7,0.5-1.5,0.5-2.4    c0-0.9-0.2-1.7-0.6-2.4c-0.4-0.7-0.9-1.2-1.5-1.6c-0.6-0.4-1.3-0.5-2.1-0.5C513.2,727.2,512.2,727.6,511.5,728.4z"/>
		<path class="st1" d="M549.2,735.5l-3.8-3.2c0,0.2,0,0.5-0.1,0.9c-0.1,0.9-0.5,1.7-1.2,2.4c-0.7,0.7-1.5,1.1-2.6,1.2    c-1.1,0.2-2,0.1-2.9-0.3c-0.9-0.3-1.6-0.9-2.1-1.6c-0.6-0.7-0.9-1.6-1-2.6c-0.1-1-0.1-2,0.2-2.8c0.3-0.8,0.8-1.5,1.4-2    c0.6-0.5,1.4-0.8,2.2-0.9l0.2,0l-0.4-0.4c-0.5-0.4-0.8-0.9-1.1-1.3c-0.3-0.5-0.5-1-0.6-1.6c-0.1-0.7,0-1.4,0.2-2    c0.3-0.7,0.7-1.2,1.4-1.7c0.6-0.5,1.4-0.8,2.4-0.9c1.4-0.2,2.6,0,3.4,0.6c0.9,0.6,1.5,1.4,1.8,2.4c0.2,0.5,0.4,1.1,0.4,1.7    l-2.7,0.4l0-0.3c0-0.2-0.1-0.4-0.1-0.5c-0.1-0.7-0.4-1.2-0.8-1.5c-0.4-0.3-1-0.5-1.7-0.4c-0.6,0.1-1.1,0.3-1.4,0.7    c-0.3,0.4-0.4,0.9-0.3,1.4c0.1,0.4,0.2,0.8,0.4,1.1c0.2,0.3,0.5,0.6,1,1l10.6,9.7L549.2,735.5z M543.1,733.3    c0.4-0.6,0.6-1.3,0.5-2.1c-0.1-0.6-0.3-1-0.6-1.4c-0.4-0.4-0.8-0.7-1.3-0.9c-0.5-0.2-1-0.2-1.5-0.2c-0.8,0.1-1.4,0.4-1.8,1    c-0.4,0.6-0.6,1.3-0.4,2.2c0.1,0.9,0.5,1.6,1.2,2c0.6,0.4,1.4,0.6,2.2,0.5C542.1,734.3,542.7,733.9,543.1,733.3z"/>
		<path class="st1" d="M563.6,714.5l2.8,10c0.4,1.5,1.1,2.5,1.9,3.1c0.9,0.5,1.9,0.7,3.1,0.3c1.2-0.3,2-1,2.4-1.9    c0.5-0.9,0.5-2.1,0.1-3.6l-2.8-10l2.7-0.8l2.8,10c0.6,2.3,0.5,4.2-0.3,5.7s-2.3,2.6-4.2,3.1c-1.9,0.5-3.7,0.4-5.2-0.5    c-1.5-0.9-2.6-2.4-3.2-4.7l-2.8-10L563.6,714.5z"/>
		<path class="st1" d="M590.7,710.3c1.1,0.2,2,0.7,2.9,1.5c0.9,0.8,1.6,1.9,2.1,3.2c0.5,1.3,0.7,2.6,0.6,3.8    c-0.1,1.2-0.5,2.2-1.2,3.1c-0.7,0.9-1.6,1.5-2.7,1.9c-1.2,0.4-2.3,0.5-3.3,0.3c-1-0.3-1.9-0.8-2.6-1.6l1.1,3l-2.6,1l-6.5-17.1    l2.6-1l2.8,7.3c0-1.1,0.2-2,0.8-2.9c0.6-0.9,1.5-1.5,2.6-2C588.5,710.2,589.6,710.1,590.7,710.3z M585.7,714.5    c-0.5,0.6-0.7,1.2-0.8,2c-0.1,0.8,0,1.6,0.3,2.4c0.3,0.8,0.8,1.5,1.4,2s1.2,0.8,2,0.9c0.7,0.1,1.4,0,2.2-0.2    c1.2-0.4,2-1.2,2.4-2.2c0.4-1,0.4-2.2-0.1-3.5c-0.5-1.3-1.2-2.2-2.2-2.7c-1-0.5-2.1-0.5-3.3-0.1    C586.7,713.5,586.1,714,585.7,714.5z"/>
		<path class="st1" d="M602.4,705c0.6-0.8,1.3-1.5,2.4-2l1.3,2.8l-0.8,0.4c-1.1,0.5-1.9,1.2-2.3,2.1c-0.4,0.9-0.3,1.9,0.3,3.2    l2.9,6.3l-2.6,1.2l-5.8-12.4l2.6-1.2l1.1,2.4C601.5,706.7,601.8,705.8,602.4,705z"/>
		<path class="st1" d="M616.6,697.6c1.1,0.1,2,0.5,2.8,1.2l-1.6-2.8l2.5-1.4l6.7,11.9l-2.5,1.4l-1.6-2.8c0.2,1.1,0,2.1-0.4,3    c-0.5,1-1.2,1.8-2.3,2.4c-1,0.6-2.1,0.9-3.2,0.8c-1.1,0-2.1-0.4-3.1-1c-1-0.7-1.8-1.6-2.5-2.9c-0.7-1.2-1.1-2.4-1.1-3.6    c-0.1-1.2,0.2-2.2,0.7-3.2c0.5-0.9,1.3-1.7,2.4-2.3C614.5,697.8,615.6,697.5,616.6,697.6z M613.4,702.7c-0.3,1.1,0,2.2,0.6,3.4    c0.7,1.2,1.6,2,2.6,2.3c1.1,0.3,2.1,0.2,3.2-0.4c0.7-0.4,1.2-0.9,1.6-1.5c0.4-0.6,0.5-1.3,0.5-2.1c0-0.8-0.2-1.5-0.7-2.3    c-0.4-0.8-1-1.4-1.6-1.8c-0.7-0.4-1.3-0.6-2.1-0.6c-0.7,0-1.4,0.2-2.1,0.6C614.3,700.7,613.6,701.6,613.4,702.7z"/>
	</g>
	<g>
		<path class="st1" d="M327.5,359.6c0-4.5,0.7-9.2,2-13.8c-14.6-3.6-23.5-11.9-23.5-19.8c0-13.8,19.3-24.1,26.2-24.1    c1.6,0,2.1,0.6,2.1,1.4c0,1.1-0.9,1.6-2.3,2.7c-3.4,2.6-9.6,7.1-9.6,17.2c0,5.4,2.2,11.3,9.8,14.5c9.3-22.2,30.5-40.9,46.3-40.9    c10,0,17.6,10.2,17.6,17.2c0,12.9-19.3,32.9-49.7,33.6c-1,4.2-1.5,8.4-1.5,12.4c0,15.6,6.5,22,18.3,22c8.7,0,18.2-6.1,23.7-13.8    c0,0,1-1.7,2.5-1.7s2.6,1.1,2.6,2.5c0,1.1-1.1,3-1.1,3c-5.5,8.4-16.7,17.5-31.7,17.5C343.9,389.3,327.5,380.1,327.5,359.6z     M348.6,340.2c22.4-0.7,36-18.7,36-30.4c0-2.7-1.7-4.7-4.8-4.7C369.1,305.1,355.1,321.5,348.6,340.2z"/>
		<path class="st1" d="M428.1,387c-6.8,0-12-3.6-12.9-10.4c0,0-8.1,10.4-17.5,10.4c-6.6,0-12.3-5.3-12.3-12.8    c0-17.7,14.8-36.5,28.3-36.5c10,0,13.4,5.8,13.4,5.8c3.7,0,8.7,1.5,8.7,5.8c0,3.7-7.1,17.7-7.1,26.1c0,2,1.4,3.4,3.4,3.4    c6.6,0,13.2-10.6,13.2-10.6s1-1.7,2.5-1.7c1.4,0,2.6,1.1,2.6,2.5c0,1.1-1.1,3-1.1,3S440.3,387,428.1,387z M416.3,344.8    c-7.1,0-15.9,17-15.9,27.3c0,3.6,1,5.5,3.6,5.5c5.9,0,16.7-18.1,16.7-27.5C420.8,346.6,418.8,344.8,416.3,344.8z M417.4,315.8    c2.2,5.7,7.5,12.8,11.2,15c1.6,0.9,2,1.4,2,2.3s-0.7,1.8-2.2,1.8c-3.7,0-12.2-3.9-17.3-8.4c-2.5-2.1-3-3.2-3-5.2    c0-2.7,4.4-8.1,6.4-8.1C415.7,313.4,416.7,314,417.4,315.8z"/>
		<path class="st1" d="M478.8,368.2c0,0,1-1.7,2.5-1.7c1.4,0,2.6,1.1,2.6,2.5c0,1.1-1.1,3-1.1,3s-9,15.1-21.1,15.1    c-7.7,0-17.5-6-17.5-14.6c0-6.8,3.6-20.8,7.9-33.6h-3.3c-0.6,0-1-0.4-1-1.1c0-1.2,2-4.3,3.7-4.3h2.5c2.5-6.6,4.9-12.5,7.1-16.5    c0.6-1.4,1.8-2.3,3.3-2.3c3.7,0,9.6,5.2,9.6,7.4c0,1.1-1.8,5.4-4.1,11.4h8.2c0.6,0,1,0.4,1,1.1c0,1.2-2.1,4.3-3.7,4.3h-7.6    c-4.1,10.9-8.6,24.7-8.6,33.6c0,3.7,3,6.4,6.5,6.4C472.3,378.8,478.8,368.2,478.8,368.2z"/>
		<path class="st1" d="M499.2,387c-12.4,0-21.4-7.6-21.4-18.1c0-18.8,15.6-31.2,26.3-31.2c7.5,0,13.5,6.4,13.5,12.9    c0,5.9-4.5,18.2-20,18.2c-1.4,0-4.7-0.7-4.7-0.7c0,7.3,4.9,11.4,10.8,11.4c11.7,0,18.9-11.3,18.9-11.3s1-1.7,2.5-1.7    c1.4,0,2.6,1.1,2.6,2.5c0,1.1-1.1,3-1.1,3S517.9,387,499.2,387z M509.5,346.4c0-1.6-0.9-2.5-2.2-2.5c-6.8,0-13.8,12.7-13.8,19.1    C502.5,363,509.5,351.6,509.5,346.4z"/>
		<path class="st1" d="M557.8,378.8c6.6,0,13.2-10.6,13.2-10.6s1-1.7,2.5-1.7c1.4,0,2.6,1.1,2.6,2.5c0,1.1-1.1,3-1.1,3    s-9,15.1-21.1,15.1c-9.3,0-15.6-5.5-15.6-12.3c0-10.8,7.7-19.3,7.7-23.1c0-2.5-7.4-3-7.4-3c-4.7,11.9-9.3,19.4-11.9,23.2    c-0.4,0.5-1.2,1.8-2.7,1.8c-1.2,0-2.6-1.4-2.6-2.6c0-1.1,1-2.3,1.4-3c2.2-3.2,7.1-10.3,10.7-21.9c0,0-4.1-3-4.1-9.1    c0-5,4.2-9.1,7.1-9.1c3.4,0,7.6,3.9,7.6,6.4c0,3.2-1.6,5.2-1.6,7.1c0,1.7,2.2,2.6,5.2,2.6c5.5,0,7.3-1.6,10.2-1.6    c2.9,0,5,2.7,5,5.9c0,5.5-9.1,16-9.1,25.9C553.8,377.3,555.4,378.8,557.8,378.8z"/>
		<path class="st1" d="M588.9,378.8c6.6,0,13.2-10.6,13.2-10.6s1-1.7,2.5-1.7c1.4,0,2.6,1.1,2.6,2.5c0,1.1-1.1,3-1.1,3    s-9,15.1-21.1,15.1c-9.3,0-15.6-5.5-15.6-13.5c0-8.9,6.6-26.6,9.6-33.4c0.6-1.4,1.8-2.3,3.3-2.3c3.7,0,9.7,5.2,9.7,7    c0,7.4-6.9,17.5-6.9,29.4C585,376.9,586.5,378.8,588.9,378.8z M592.7,327.6c-3.6,0-6.6-2.6-6.6-7c0-6.3,4.9-12.4,10.3-12.4    c3.6,0,6.3,2.7,6.3,6.8C602.7,321.5,598,327.6,592.7,327.6z"/>
		<path class="st1" d="M649,378.8c6.6,0,13.2-10.6,13.2-10.6s1-1.7,2.5-1.7c1.4,0,2.6,1.1,2.6,2.5c0,1.1-1.1,3-1.1,3    s-9,15.1-21.1,15.1c-9.3,0-15.6-5.5-15.6-12.4c0-10.1,6.3-18.9,6.3-26.3c0-1.1-1.1-2-2.5-2c-7.4,0-18.9,14.6-18.9,38.2    c0,2.1-1,2.5-2.7,2.5c-6.5,0-11.6-2.8-11.6-6.8c0-13.6,7.1-32,10-39c0.6-1.5,1.8-2.3,3.3-2.3c1.8,0,4.8,0.7,8.6,6.6    c0,0,8.9-7.9,19.3-7.9c5.4,0,10.4,5.8,10.4,10.6c0,7.4-6.5,17-6.5,25.8C645.1,376.9,646.6,378.8,649,378.8z"/>
		<path class="st1" d="M698.8,396.5c-4.1,14.9-9.7,29.3-24.8,29.3c-7.5,0-13.9-5.2-13.9-11.7c0-7.1,12.3-15.1,25.8-20.5    c1.2-4.8,3.7-14,4.3-17c0,0-8.1,10.4-17.5,10.4c-6.6,0-12.3-5.3-12.3-12.8c0-17.7,14.8-36.5,28.3-36.5c10,0,13.4,5.8,13.4,5.8    c3.7,0,8.7,1.5,8.7,5.8c0,2.5-3.1,13.8-6.9,27.8c-0.6,2.1-3.2,11.8-3.8,14.3c3.8-0.9,7.3-1.4,10.2-1.4c2,0,4.3,0.6,4.3,2.1    s-2,4.4-3.4,4.4c-1.5,0-2.3-1.1-5.9-1.1C703.5,395.4,701.3,395.7,698.8,396.5z M684.1,400.6c-8.4,4.7-15.4,10.9-15.4,16.1    c0,1.6,0.9,2.5,2.2,2.5C676.4,419.2,680.9,410.2,684.1,400.6z M691.3,344.8c-7.1,0-15.9,17-15.9,27.3c0,3.6,1,5.5,3.6,5.5    c5.9,0,16.8-18.1,16.8-27.5C695.9,346.6,693.8,344.8,691.3,344.8z"/>
	</g>
	<path class="st2" d="M712.5,375.4"/>
	<g>
		<path class="st0" d="M876.6,605.4H737.9c0,0,0,0-0.1,0H147.2c-1.1,0-2,0.9-2,2s0.9,2,2,2h143.1c38.8,89.6,126.7,147.4,224.4,147.4    c97.7,0,185.6-57.8,224.4-147.4h137.4c1.1,0,2-0.9,2-2S877.7,605.4,876.6,605.4z M514.8,752.8c-95.5,0-181.6-56.2-220.1-143.4    h440.2C696.3,696.6,610.3,752.8,514.8,752.8z"/>
		<path class="st0" d="M147.2,419.2h502.4c1.1,0,2-0.9,2-2s-0.9-2-2-2h-358c7.7-17.5,17.5-34.2,29.1-49.4c0.7-0.9,0.5-2.1-0.4-2.8    c-0.9-0.7-2.1-0.5-2.8,0.4c-12.2,16-22.4,33.4-30.3,51.8H147.2c-1.1,0-2,0.9-2,2S146.1,419.2,147.2,419.2z"/>
		<path class="st0" d="M706.2,418.6h28.4c0.2,0,0.3,0.1,0.5,0.1c0.2,0,0.3,0,0.5-0.1h141.2c1.1,0,2-0.9,2-2s-0.9-2-2-2H736.3    c-6.1-14.1-13.6-27.6-22.2-40.3c-0.6-0.9-1.9-1.1-2.8-0.5c-0.9,0.6-1.1,1.9-0.5,2.8c8.2,12,15.3,24.8,21.1,38.1h-25.8    c-1.1,0-2,0.9-2,2S705.1,418.6,706.2,418.6z"/>
		<path class="st0" d="M399.3,299.2c34.4-18.3,73.4-27.9,112.6-27.9c59,0,115.8,21.6,159.9,60.8c0.4,0.3,0.8,0.5,1.3,0.5    c0.5,0,1.1-0.2,1.5-0.7c0.7-0.8,0.7-2.1-0.2-2.8c-44.8-39.9-102.5-61.8-162.5-61.8c-39.9,0-79.5,9.8-114.5,28.4    c-1,0.5-1.3,1.7-0.8,2.7C397.2,299.3,398.4,299.7,399.3,299.2z"/>
	</g>
	<g>
		<path class="st1" d="M542.3,641.1c-4.4-0.5-8.8-0.7-13.3-0.8c0-1.6-0.3-5.4-1.9-8.6c-0.3-0.7-1.1-0.9-1.8-0.6    c-0.7,0.3-0.9,1.1-0.6,1.8c1.4,2.7,1.6,6,1.6,7.4c-4.5,0-8.9,0.3-13.4,0.8c-6.7,0.7-11.8,6.3-11.8,13.1c0,1,0.4,1.9,1.2,2.6    c0.5,0.4,1.2,0.7,1.8,0.8c-0.7,2.1-1.1,4.4-1.1,6.9c0,5,1.1,9.2,2.8,12.7c-4.9,4.3-10.5,6-11.9,6.4c-2-0.5-13.1-4-17.7-14.1    c-0.3-0.7-1.1-1-1.8-0.7c-0.7,0.3-1,1.1-0.7,1.8c2.3,5.1,6.5,9.5,12,12.6c4.2,2.3,7.6,3.1,7.8,3.2c0.1,0,0.2,0,0.3,0s0.2,0,0.3,0    c0.3-0.1,6.9-1.6,12.9-6.7c2.3,3.8,5.3,6.6,8.1,8.6c5.9,4.3,11.8,5.6,12.1,5.7c0.1,0,0.2,0,0.3,0c0.1,0,0.2,0,0.3,0    c0.2-0.1,6.1-1.4,12.1-5.7c5.5-4,12.1-11.3,12.1-23.7c0-2.5-0.4-4.8-1.1-6.9c0.7-0.1,1.3-0.3,1.8-0.8c0.8-0.6,1.2-1.6,1.2-2.6v0    C554.1,647.5,549.1,641.9,542.3,641.1z M551.2,654.7c-0.2,0.1-0.4,0.2-0.6,0.2c-0.5-0.1-1-0.2-1.5-0.3c-3.5-0.6-7.1-1.1-10.7-1.4    c-0.7-0.1-1.4,0.5-1.4,1.2c-0.1,0.7,0.5,1.4,1.2,1.4c3.3,0.3,6.6,0.7,9.8,1.3c1,2.1,1.5,4.6,1.5,7.3c0,9-3.7,16.2-11,21.5    c-4.8,3.5-9.6,4.9-10.9,5.2c-1.2-0.3-6.1-1.8-10.9-5.2c-7.3-5.3-11-12.5-11-21.5c0-2.7,0.5-5.2,1.5-7.3c6.7-1.1,13.5-1.7,20.3-1.7    c1.9,0,3.9,0,5.8,0.1c0.7,0,1.4-0.5,1.4-1.3c0-0.7-0.5-1.4-1.3-1.4c-2-0.1-4-0.1-6-0.1c-7.2,0-14.4,0.6-21.4,1.9    c-0.5,0.1-1,0.2-1.5,0.3c-0.3,0.1-0.5-0.1-0.6-0.2c-0.1-0.1-0.3-0.2-0.3-0.5c0-5.4,4-9.9,9.4-10.4c9.5-1,19.2-1,28.7,0    c5.4,0.6,9.4,5.1,9.4,10.4v0h0C551.5,654.5,551.3,654.7,551.2,654.7z"/>
	</g>
	<g>
		<path class="st1" d="M510,638.5c-0.8-0.3-1.7-0.5-2.5-0.5c-4-0.4-8-0.7-12-0.7c0-1.1-0.2-3.2-0.8-5.3c-0.2-0.7-0.9-1.1-1.6-0.9    c-0.7,0.2-1.1,0.9-0.9,1.6c0.5,1.8,0.7,3.6,0.7,4.6c-4,0-8.1,0.3-12.1,0.7c-5.4,0.6-9.8,4.7-10.7,10.1c-0.2,1.4,0.2,2.7,1.2,3.7    c0.4,0.4,1,0.8,1.5,1c-0.8,2-1.1,4.2-1.1,6.6c0,2.1,0.2,4.1,0.6,6c0.1,0.6,0.7,1,1.3,1c0.1,0,0.2,0,0.3,0c0.7-0.2,1.2-0.9,1-1.6    c-0.4-1.7-0.6-3.6-0.6-5.5c0-2.5,0.5-4.7,1.3-6.5c6.1-1,12.3-1.6,18.4-1.6c1.6,0,3.2,0,4.7,0.1c0.7,0,1.4-0.5,1.4-1.3    c0-0.7-0.5-1.4-1.3-1.4c-1.6-0.1-3.2-0.1-4.8-0.1c-6.5,0-13.1,0.6-19.5,1.7c0,0,0,0,0,0c0,0,0,0,0,0c-0.5,0.1-1-0.1-1.4-0.4    c-0.4-0.4-0.5-0.9-0.4-1.4c0.7-4.2,4.1-7.4,8.3-7.9c8.7-0.9,17.5-0.9,26.1,0c0.7,0.1,1.3,0.2,2,0.4c0.7,0.2,1.4-0.1,1.7-0.8    C511.1,639.5,510.7,638.7,510,638.5z"/>
	</g>
</g>
</svg>